<svg id="Grupo_75" data-name="Grupo 75" xmlns="http://www.w3.org/2000/svg" xmlns:xlink="http://www.w3.org/1999/xlink" width="255.77" height="221.794" viewBox="0 0 255.77 221.794">
  <defs>
    <clipPath id="clip-path">
      <rect id="Rectángulo_47" data-name="Rectángulo 47" width="255.77" height="221.794" fill="none"/>
    </clipPath>
    <clipPath id="clip-path-2">
      <rect id="Rectángulo_30" data-name="Rectángulo 30" width="153.785" height="197.648" fill="none"/>
    </clipPath>
    <clipPath id="clip-path-4">
      <rect id="Rectángulo_43" data-name="Rectángulo 43" width="42.067" height="156.251" fill="none"/>
    </clipPath>
    <clipPath id="clip-path-5">
      <rect id="Rectángulo_44" data-name="Rectángulo 44" width="2.412" height="61.601" fill="none"/>
    </clipPath>
    <clipPath id="clip-path-6">
      <rect id="Rectángulo_45" data-name="Rectángulo 45" width="5.256" height="19.85" fill="none"/>
    </clipPath>
  </defs>
  <g id="Grupo_73" data-name="Grupo 73" clip-path="url(#clip-path)">
    <g id="Grupo_61" data-name="Grupo 61" transform="translate(66.681 0.001)">
      <g id="Grupo_60" data-name="Grupo 60" clip-path="url(#clip-path-2)">
        <path id="Trazado_92" data-name="Trazado 92" d="M259.232,71.468,155.238,2.446C143.713-5.194,129.355,6.53,133.9,19.965L188.234,189.82c2.108,5.993,8.957,9.22,15.346,7.311a12.067,12.067,0,0,0,6.652-4.874l53.413-99.911a10.938,10.938,0,0,0,1.712-4.479,14.936,14.936,0,0,0-6.125-16.4" transform="translate(-112.099 -0.01)" fill="#e0e6f4"/>
        <path id="Trazado_93" data-name="Trazado 93" d="M156.984,224.916c-1.647-5.335-7.64-8.43-13.37-6.915-.593.2-1.186.4-1.778.659l-34.511,16c-5.335,2.5-7.574,8.562-4.874,13.5a10.776,10.776,0,0,0,6.388,5.137l43.534,12.975c5.664,1.712,11.789-1.251,13.567-6.52a9.389,9.389,0,0,0,.066-5.862Z" transform="translate(-101.265 -74.293)" fill="#e0e6f4"/>
      </g>
    </g>
    <g id="Grupo_72" data-name="Grupo 72">
      <g id="Grupo_71" data-name="Grupo 71" clip-path="url(#clip-path)">
        <path id="Trazado_94" data-name="Trazado 94" d="M128.267,314.122c70.525,0,127.7,3.338,127.7,7.455s-57.172,7.455-127.7,7.455S.57,325.7.57,321.577s57.172-7.455,127.7-7.455" transform="translate(-0.195 -107.239)" fill="#f5f5f5"/>
        <path id="Trazado_95" data-name="Trazado 95" d="M13.179,105.9h98.29a11.618,11.618,0,0,1-11.447-10.814L98.284,65.792H0L1.732,95.087A11.618,11.618,0,0,0,13.179,105.9" transform="translate(0 -22.461)" fill="#407bff"/>
        <path id="Trazado_96" data-name="Trazado 96" d="M13.179,105.9h98.29a11.618,11.618,0,0,1-11.447-10.814L98.284,65.792H0L1.732,95.087A11.618,11.618,0,0,0,13.179,105.9" transform="translate(0 -22.461)" fill="#ccd6ec"/>
        <path id="Trazado_97" data-name="Trazado 97" d="M125.588,36.2h-87.5A10.076,10.076,0,0,0,27.9,46.159q0,.425.026.85l2.266,37.982A10.063,10.063,0,0,1,20.9,95.772q-.438.033-.878.027H118.3a10.064,10.064,0,0,0,10.2-9.93q0-.44-.027-.878l.244,4.11-2.49-42.065a10.063,10.063,0,0,1,9.263-10.805q.452-.036.906-.029Z" transform="translate(-6.835 -12.359)" fill="#6685c6"/>
        <path id="Trazado_98" data-name="Trazado 98" d="M145.764,36.2H47.46A11.6,11.6,0,0,1,58.907,47.01L67.37,189.723h98.284L157.21,47.036A11.618,11.618,0,0,0,145.764,36.2" transform="translate(-16.203 -12.359)" fill="#407bff"/>
        <path id="Trazado_99" data-name="Trazado 99" d="M145.764,36.2H47.46A11.6,11.6,0,0,1,58.907,47.01L67.37,189.723h98.284L157.21,47.036A11.618,11.618,0,0,0,145.764,36.2" transform="translate(-16.203 -12.359)" fill="#ccd6ec"/>
        <path id="Trazado_100" data-name="Trazado 100" d="M105.107,88.432H86.89L85.79,70.2h18.224ZM88.866,86.285h13.943l-.771-13.943H88.069Z" transform="translate(-29.288 -23.966)" fill="#fff"/>
        <path id="Trazado_101" data-name="Trazado 101" d="M108.967,153.539H90.73L89.65,135.3h18.237Zm-16.221-2.147h13.943l-.823-13.943H91.922Z" transform="translate(-30.606 -46.191)" fill="#fff"/>
        <path id="Trazado_102" data-name="Trazado 102" d="M112.8,218.649H94.566L93.46,200.412H111.7ZM96.588,216.5h13.943l-.83-13.943H95.759Z" transform="translate(-31.907 -68.419)" fill="#fff"/>
        <rect id="Rectángulo_31" data-name="Rectángulo 31" width="41.927" height="2.147" transform="translate(84.723 46.229)" fill="#fff"/>
        <rect id="Rectángulo_32" data-name="Rectángulo 32" width="37.001" height="2.147" transform="translate(85.197 54.277)" fill="#fff"/>
        <rect id="Rectángulo_33" data-name="Rectángulo 33" width="41.927" height="2.147" transform="translate(85.672 62.319)" fill="#fff"/>
        <rect id="Rectángulo_34" data-name="Rectángulo 34" width="41.927" height="2.147" transform="translate(87.259 89.111)" fill="#fff"/>
        <rect id="Rectángulo_35" data-name="Rectángulo 35" width="24.612" height="2.147" transform="translate(87.733 97.159)" fill="#fff"/>
        <rect id="Rectángulo_36" data-name="Rectángulo 36" width="12.705" height="2.147" transform="translate(88.214 105.201)" fill="#fff"/>
        <rect id="Rectángulo_37" data-name="Rectángulo 37" width="20.963" height="2.147" transform="translate(109.177 105.201)" fill="#fff"/>
        <rect id="Rectángulo_38" data-name="Rectángulo 38" width="41.927" height="2.147" transform="translate(89.794 131.993)" fill="#fff"/>
        <rect id="Rectángulo_39" data-name="Rectángulo 39" width="41.927" height="2.147" transform="translate(90.275 140.041)" fill="#fff"/>
        <rect id="Rectángulo_40" data-name="Rectángulo 40" width="23.19" height="2.147" transform="translate(90.749 148.082)" fill="#fff"/>
        <path id="Trazado_103" data-name="Trazado 103" d="M99.854,84.9a1.777,1.777,0,0,1-1.225-.487l-4.459-4.228a1.787,1.787,0,0,1,2.457-2.595l3.174,3,7.146-7.594a1.787,1.787,0,1,1,2.6,2.45l-8.371,8.9a1.759,1.759,0,0,1-1.251.56Z" transform="translate(-31.959 -24.727)" fill="#0033a0"/>
        <path id="Trazado_104" data-name="Trazado 104" d="M103.688,150.008a1.764,1.764,0,0,1-1.225-.487l-4.479-4.228a1.785,1.785,0,1,1,2.393-2.649c.019.017.039.036.057.054l3.181,3,7.139-7.594a1.787,1.787,0,1,1,2.6,2.45l-8.371,8.9a1.752,1.752,0,0,1-1.245.56Z" transform="translate(-33.25 -46.955)" fill="#0033a0"/>
        <path id="Trazado_105" data-name="Trazado 105" d="M107.538,215.193a1.774,1.774,0,0,1-1.225-.494l-4.479-4.228a1.785,1.785,0,1,1,2.393-2.649c.019.017.039.036.057.054l3.181,3,7.146-7.594a1.785,1.785,0,0,1,2.582,2.437l-8.371,8.9a1.778,1.778,0,0,1-1.251.56Z" transform="translate(-34.565 -69.251)" fill="#0033a0"/>
        <rect id="Rectángulo_41" data-name="Rectángulo 41" width="13.172" height="159.916" transform="translate(154.638 48.144) rotate(-13.81)" fill="#0033a0"/>
        <g id="Grupo_64" data-name="Grupo 64" transform="translate(163.527 44.999)" opacity="0.2" style="mix-blend-mode: normal;isolation: isolate">
          <g id="Grupo_63" data-name="Grupo 63">
            <g id="Grupo_62" data-name="Grupo 62" clip-path="url(#clip-path-4)">
              <rect id="Rectángulo_42" data-name="Rectángulo 42" width="4.011" height="159.916" transform="translate(-0.003 0.958) rotate(-13.812)"/>
            </g>
          </g>
        </g>
        <path id="Trazado_106" data-name="Trazado 106" d="M295.072,310.038l9.913-2.437a1.482,1.482,0,0,1,1.793,1.085l1.66,6.754a1.482,1.482,0,0,1-1.085,1.793l-9.913,2.437a1.482,1.482,0,0,1-1.793-1.085l-1.66-6.754a1.482,1.482,0,0,1,1.085-1.793" transform="translate(-100.35 -104.998)" fill="#407bff"/>
        <path id="Trazado_107" data-name="Trazado 107" d="M295.072,310.038l9.913-2.437a1.482,1.482,0,0,1,1.793,1.085l1.66,6.754a1.482,1.482,0,0,1-1.085,1.793l-9.913,2.437a1.482,1.482,0,0,1-1.793-1.085l-1.66-6.754a1.482,1.482,0,0,1,1.085-1.793" transform="translate(-100.35 -104.998)" fill="#6685c6"/>
        <path id="Trazado_108" data-name="Trazado 108" d="M291.824,303.691l12.159-2.989a1.37,1.37,0,0,1,1.657,1l1.088,4.426a1.37,1.37,0,0,1-1,1.657l-12.158,2.989a1.371,1.371,0,0,1-1.658-1l-1.087-4.426a1.369,1.369,0,0,1,1-1.657" transform="translate(-99.271 -102.644)" fill="#e0e0e0"/>
        <path id="Trazado_109" data-name="Trazado 109" d="M247.59,60.829,234.8,63.977l1.5-10.7.962-6.863,4.037,5.631Z" transform="translate(-80.159 -15.845)" fill="#e0e0e0"/>
        <path id="Trazado_110" data-name="Trazado 110" d="M242.079,52.043l-5,1.232.962-6.863Z" transform="translate(-80.937 -15.845)" fill="#0033a0"/>
        <path id="Trazado_111" data-name="Trazado 111" d="M298.022,52.882c-.066,3.952-.83,11.4,1.251,13.831a28.87,28.87,0,0,0-12.441,8.114c-2.852-4.663.869-7.172.869-7.172,4.1-1.317,3.853-4.406,2.99-7.245Z" transform="translate(-97.555 -18.054)" fill="#ffb573"/>
        <path id="Trazado_112" data-name="Trazado 112" d="M285.55,75.976c1.087-4.037-1.976-4.61,3.128-6.586,3.991-1.581,11.532-1.8,13.3-.533.981.711-.369,3.2-.369,3.2Z" transform="translate(-97.485 -23.227)" fill="#263238"/>
        <path id="Trazado_113" data-name="Trazado 113" d="M315.428,77.864c.3.474.507.836.744,1.251s.435.8.659,1.2c.422.8.817,1.607,1.2,2.424.764,1.627,1.429,3.293,2.042,4.979a53.977,53.977,0,0,1,2.634,10.538l.171,1.357c.033.191.059.533.079.83s0,.566,0,.83a24.629,24.629,0,0,1-.217,2.9c-.23,1.818-.58,3.537-.962,5.269a85.266,85.266,0,0,1-2.944,9.965,1.93,1.93,0,0,1-3.741-.81c.263-3.346.573-6.718.817-10.011.118-1.647.211-3.293.237-4.847a20.491,20.491,0,0,0-.072-2.173l-.059-.441-.086-.428-.244-1.146a59.913,59.913,0,0,0-2.832-9.049c-.593-1.475-1.232-2.937-1.9-4.38q-.5-1.087-1.047-2.134l-.553-1.041-.52-.955-.092-.171a3.866,3.866,0,0,1,6.685-3.879Z" transform="translate(-105.241 -25.984)" fill="#dabea5"/>
        <path id="Trazado_114" data-name="Trazado 114" d="M316.279,142.056l.547-.909,1.541-2.595,2.825,1.6a6.671,6.671,0,0,1-1.205,4.966l-.8.659a1.416,1.416,0,0,1-1.936-.072l-.613-.566a2.588,2.588,0,0,1-.362-3.082" transform="translate(-107.856 -47.301)" fill="#ffb573"/>
        <path id="Trazado_115" data-name="Trazado 115" d="M255.425,140.394l-.454-1.647a1.535,1.535,0,0,0-1.857-1.08l-1.976.507-1.218.3a3.05,3.05,0,0,0-2.279,2.878v.981a1.686,1.686,0,0,0,1.561,1.693l1.218.119a8.2,8.2,0,0,0,4.755-2.555,1.318,1.318,0,0,0,.25-1.2" transform="translate(-84.543 -46.982)" fill="#dabea5"/>
        <path id="Trazado_116" data-name="Trazado 116" d="M311.612,74.2c3.458,1.535,6.626,5.19,9.22,11.954-.83,2.786-9.4,7.35-9.4,7.35s-10.689-22.663.178-19.3" transform="translate(-104.718 -25.214)" fill="#407bff"/>
        <path id="Trazado_117" data-name="Trazado 117" d="M269.858,82.488c.033,2.509-4.123,8.325.659,11.7.415,5.078.975,10.077,2.061,18.408h25.574c-2.43-9.22-.329-15.411,3.57-31.613a6.236,6.236,0,0,0-5.427-7.752c-1.021-.1-2.1-.184-3.2-.244a81.237,81.237,0,0,0-11.618,0c-1.258.112-2.555.27-3.8.441a9.135,9.135,0,0,0-7.818,9.062" transform="translate(-91.567 -24.845)" fill="#00aec7"/>
        <path id="Trazado_118" data-name="Trazado 118" d="M273.248,81.868c.059,1.884,0,3.688,0,5.532s-.119,3.668-.237,5.513a88.977,88.977,0,0,1-1.317,11.144c-.079.468-.2.955-.316,1.429s-.211.948-.362,1.449l-.211.731-.112.369a4.089,4.089,0,0,1-.158.487,7.844,7.844,0,0,1-1.12,1.976,21.758,21.758,0,0,1-2.1,2.351c-.692.692-1.4,1.317-2.108,1.976a74.633,74.633,0,0,1-8.9,6.586,1.936,1.936,0,0,1-2.5-2.9c2.351-2.681,4.775-5.341,7.034-7.976.553-.659,1.093-1.317,1.607-1.976a16,16,0,0,0,1.317-1.851c.158-.244.257-.54.171-.375s0-.086,0-.158l.059-.29.125-.573c.092-.369.145-.784.211-1.186s.145-.8.184-1.225c.448-3.326.659-6.83.784-10.334s.2-7.073.224-10.538a3.866,3.866,0,0,1,7.732-.086Z" transform="translate(-86.487 -26.668)" fill="#dabea5"/>
        <path id="Trazado_119" data-name="Trazado 119" d="M275.361,74.413c-3.155,1.567-6.283,4.61-7.581,11.578.823,2.76,12.1,8.075,12.1,8.075s6.277-23.684-4.518-19.653" transform="translate(-91.418 -25.246)" fill="#00aec7"/>
        <path id="Trazado_120" data-name="Trazado 120" d="M296.276,37.7c.659,6.191,1.054,8.8-1.469,12.514-3.8,5.631-11.44,5.269-13.9-.547-2.213-5.269-2.9-14.489,2.6-18.085A8.18,8.18,0,0,1,296.276,37.7" transform="translate(-95.341 -10.297)" fill="#dabea5"/>
        <path id="Trazado_121" data-name="Trazado 121" d="M282.253,38.111c-3.952-.7-4.907-5.236-3.445-7.212-6.659.3-11.144-7.152-3.952-11.4s13.541,2.331,13.027,4.814c8.858-.8,14.048,6.487,9.221,11.908,6.369,1.034,15.905,8.213,8.9,15.754C315.474,53.365,316.5,83,290.736,77.733c-27.161-5.559-3.563-29.2-3.563-29.2s-6.882-1.936-4.92-10.426" transform="translate(-92.581 -6.181)" fill="#001a50"/>
        <path id="Trazado_122" data-name="Trazado 122" d="M320.909,63.108l-.56-.342c2.391-3.886,2.786-7.422,1.172-10.538-2.075-3.952-7.106-6.283-11.012-6.507l.04-.659c4.083.231,9.372,2.634,11.559,6.856,1.7,3.293,1.284,7.152-1.2,11.19" transform="translate(-106.006 -15.384)" fill="#001a50"/>
        <path id="Trazado_123" data-name="Trazado 123" d="M310.085,43.845c2.272-.375,1.2-4.083-.474-5.065s-9.688.613-8.806,3.168,6.23,2.4,9.28,1.9" transform="translate(-102.67 -13.139)" fill="#fff"/>
        <path id="Trazado_124" data-name="Trazado 124" d="M311.312,42.724c2.266-.435,1.357-3.438-.342-4.38s-8.7-.244-7.745,2.279,5.058,2.7,8.088,2.1" transform="translate(-103.488 -12.953)" fill="#00aec7"/>
        <path id="Trazado_125" data-name="Trazado 125" d="M275.957,32.92a6.818,6.818,0,0,1-4.169-1.5,6.259,6.259,0,0,1-2.634-5.6c.178-1.232.948-2.924,3.635-4l.244.613c-1.9.757-3.01,1.976-3.227,3.477a5.678,5.678,0,0,0,2.41,4.992,5.8,5.8,0,0,0,5.783.962l.25.613a5.918,5.918,0,0,1-2.292.441" transform="translate(-91.87 -7.45)" fill="#001a50"/>
        <path id="Trazado_126" data-name="Trazado 126" d="M288.1,48.241c-.3,1.62-.389,2.312-1.232,3.069a1.785,1.785,0,0,1-3.115-1.166c-.132-1.488.375-3.886,1.884-4.386a1.99,1.99,0,0,1,2.463,2.483" transform="translate(-96.863 -15.586)" fill="#dabea5"/>
        <path id="Trazado_127" data-name="Trazado 127" d="M284.546,56.222l-.534-.955a.256.256,0,0,1,0-.257l.534-.948a.264.264,0,0,1,.461,0l.533.948a.256.256,0,0,1,0,.257l-.533.955a.264.264,0,0,1-.461,0" transform="translate(-96.948 -18.41)" fill="#fff"/>
        <path id="Trazado_128" data-name="Trazado 128" d="M272.255,133.2s-.9,33.023-2.108,54.743c-1.278,19.936-2.918,66.559-2.918,66.559l5.038.263s11.144-39.233,10.676-62.936c13.08-33.154,8.377-57.635,8.377-57.635Z" transform="translate(-91.23 -45.474)" fill="#dabea5"/>
        <path id="Trazado_129" data-name="Trazado 129" d="M262.017,314.138a.659.659,0,0,0-.771,0,14.105,14.105,0,0,1-8.358,2.779c-3.346.145-2.522,1.976,2.266,2.588,5.631.7,6.836,1.857,8.654,2.312s3.26-.929,3.227-4.749a.658.658,0,0,0-.422-.6,21.961,21.961,0,0,1-4.6-2.331" transform="translate(-85.643 -107.202)" fill="#001a50"/>
        <path id="Trazado_130" data-name="Trazado 130" d="M285.01,133.2s9.22,39.082,14.562,57.3c5.618,19.1,10.07,62.686,10.037,64.129h4.36s5.631-35.328-1.317-64.148c-.659-46.761-8.72-57.246-8.72-57.246Z" transform="translate(-97.3 -45.474)" fill="#dabea5"/>
        <path id="Trazado_131" data-name="Trazado 131" d="M318.4,315.18a.566.566,0,0,0-.659.171c-1.126,1.462-1.943,3.082-5.269,4.5-2.753,1.172-1.232,2.779,3.076,2.193,5.065-.7,5.137.125,6.843.125s2.509-1.7,1.265-5.394a.7.7,0,0,0-.553-.474,20.021,20.021,0,0,1-4.7-1.126" transform="translate(-106.203 -107.586)" fill="#001a50"/>
        <path id="Trazado_132" data-name="Trazado 132" d="M272.894,132.724s-4.347,28.939-3.734,68.5a139.693,139.693,0,0,0,40.55-6.257s.2-51.253-11.242-62.219c-6.606-1.778-25.422-.6-25.574-.02" transform="translate(-91.869 -44.996)" fill="#008395"/>
        <g id="Grupo_67" data-name="Grupo 67" transform="translate(181.069 89.044)" opacity="0.2" style="mix-blend-mode: normal;isolation: isolate">
          <g id="Grupo_66" data-name="Grupo 66">
            <g id="Grupo_65" data-name="Grupo 65" clip-path="url(#clip-path-5)">
              <path id="Trazado_133" data-name="Trazado 133" d="M275.39,196.761a.165.165,0,0,1-.165-.158c-1.232-25.258,1.758-60.915,1.785-61.25a.159.159,0,0,1,.163-.153h.014a.164.164,0,0,1,.151.177h0c-.033.362-3.016,35.993-1.785,61.25a.158.158,0,0,1-.144.171H275.4Z" transform="translate(-274.928 -135.2)" fill="#fff"/>
            </g>
          </g>
        </g>
        <g id="Grupo_70" data-name="Grupo 70" transform="translate(198.741 105.497)" opacity="0.2" style="mix-blend-mode: normal;isolation: isolate">
          <g id="Grupo_69" data-name="Grupo 69">
            <g id="Grupo_68" data-name="Grupo 68" clip-path="url(#clip-path-6)">
              <path id="Trazado_134" data-name="Trazado 134" d="M301.76,180.032l3.747-19.85,1.508,4.749Z" transform="translate(-301.76 -160.182)"/>
            </g>
          </g>
        </g>
      </g>
    </g>
  </g>
</svg>
