<svg xmlns="http://www.w3.org/2000/svg" xmlns:xlink="http://www.w3.org/1999/xlink" width="269.546" height="233.94" viewBox="0 0 269.546 233.94">
  <defs>
    <clipPath id="clip-path">
      <rect id="Rectángulo_16" data-name="Rectángulo 16" width="269.546" height="233.94" fill="none"/>
    </clipPath>
    <clipPath id="clip-path-3">
      <rect id="Rectángulo_6" data-name="Rectángulo 6" width="162.332" height="208.595" fill="none"/>
    </clipPath>
    <clipPath id="clip-path-4">
      <path id="Trazado_4" data-name="Trazado 4" d="M202.018,232.24v0c-6.515,6.21-7.181,19.231-7.181,19.231a57.211,57.211,0,0,0-3.512-9.609c-2.063-4.06-6.348-3.533-8.323,2.126a70.8,70.8,0,0,0-2.733,13.756s-1.889-6.249-4.972-5.256-4.881,8.316-4.363,15.5,3.79,14.945,3.79,14.945,4.264,8.492,11.852,11.646,18.224-.819,24.189-5.506,11.753-11.352,12.328-16.323-9.428-3.009-9.428-3.009,4.421-6.039,6.26-10.352-.315-8.813-6.359-6.134l-6.047,2.678s4.635-9.384,4.552-15.248c-.063-4.444-2.064-10.572-5.867-10.573-1.213,0-2.61.626-4.187,2.127" transform="translate(-170.846 -230.113)" fill="none"/>
    </clipPath>
    <clipPath id="clip-path-5">
      <path id="Trazado_5" data-name="Trazado 5" d="M182.367,271.839h0l5.2,23.393s-3.371,5.177,13.093-17.092,5.621-48.24,5.621-48.24c-23.691,11.015-23.917,41.939-23.917,41.939" transform="translate(-182.366 -229.9)" fill="none"/>
    </clipPath>
    <clipPath id="clip-path-7">
      <rect id="Rectángulo_9" data-name="Rectángulo 9" width="37.013" height="53.328" fill="none"/>
    </clipPath>
    <clipPath id="clip-path-8">
      <rect id="Rectángulo_10" data-name="Rectángulo 10" width="19.467" height="23.893" fill="none"/>
    </clipPath>
    <clipPath id="clip-path-9">
      <rect id="Rectángulo_11" data-name="Rectángulo 11" width="6.868" height="7.556" fill="none"/>
    </clipPath>
    <clipPath id="clip-path-10">
      <rect id="Rectángulo_12" data-name="Rectángulo 12" width="7.477" height="32.052" fill="none"/>
    </clipPath>
    <clipPath id="clip-path-11">
      <rect id="Rectángulo_13" data-name="Rectángulo 13" width="6.179" height="6.318" fill="none"/>
    </clipPath>
    <clipPath id="clip-path-12">
      <rect id="Rectángulo_14" data-name="Rectángulo 14" width="4.7" height="5.47" fill="none"/>
    </clipPath>
  </defs>
  <g id="Grupo_30" data-name="Grupo 30" transform="translate(0)">
    <g id="Grupo_29" data-name="Grupo 29" transform="translate(0)" clip-path="url(#clip-path)">
      <g id="Grupo_2" data-name="Grupo 2">
        <g id="Grupo_1" data-name="Grupo 1" clip-path="url(#clip-path)">
          <path id="Trazado_1" data-name="Trazado 1" d="M134.773,313.916c74.433,0,134.773,3.523,134.773,7.869s-60.34,7.869-134.773,7.869S0,326.13,0,321.784s60.34-7.869,134.773-7.869" transform="translate(0 -95.713)" fill="#f5f5f5"/>
        </g>
      </g>
      <g id="Grupo_4" data-name="Grupo 4" transform="translate(38.345 4.415)">
        <g id="Grupo_3" data-name="Grupo 3" clip-path="url(#clip-path-3)">
          <path id="Trazado_2" data-name="Trazado 2" d="M220.126,81.781,110.4,8.911C98.228.824,83.056,13.255,87.866,27.374L145.216,206.64c2.2,6.31,9.453,9.765,16.216,7.716a12.77,12.77,0,0,0,7.007-5.163l56.373-105.422a11.51,11.51,0,0,0,1.8-4.707,15.767,15.767,0,0,0-6.482-17.284" transform="translate(-64.857 -6.352)" fill="#e0e6f4"/>
          <path id="Trazado_3" data-name="Trazado 3" d="M113.986,231.629c-1.755-5.653-8.087-8.908-14.142-7.27a11.92,11.92,0,0,0-1.895.69L61.516,241.911c-5.65,2.614-7.959,9.008-5.16,14.283a11.224,11.224,0,0,0,6.749,5.422l45.938,13.721c6,1.795,12.431-1.3,14.353-6.9a9.982,9.982,0,0,0,.092-6.215Z" transform="translate(-55.165 -72.693)" fill="#e0e6f4"/>
        </g>
      </g>
      <g id="Grupo_6" data-name="Grupo 6" transform="translate(118.755 159.951)">
        <g id="Grupo_5" data-name="Grupo 5" clip-path="url(#clip-path-4)">
          <rect id="Rectángulo_7" data-name="Rectángulo 7" width="53.253" height="67.623" transform="translate(-0.43 -0.002)" fill="#aed87a"/>
        </g>
      </g>
      <g id="Grupo_8" data-name="Grupo 8" transform="translate(126.762 159.803)">
        <g id="Grupo_7" data-name="Grupo 7" clip-path="url(#clip-path-5)">
          <rect id="Rectángulo_8" data-name="Rectángulo 8" width="34.759" height="70.51" transform="translate(0 -0.001)" fill="#78be21"/>
        </g>
      </g>
      <g id="Grupo_28" data-name="Grupo 28">
        <g id="Grupo_27" data-name="Grupo 27" clip-path="url(#clip-path)">
          <path id="Trazado_6" data-name="Trazado 6" d="M138.334,6.083a24.9,24.9,0,0,1,12.6-5.672,32.137,32.137,0,0,1,16.356,1.7,38.378,38.378,0,0,1,15.716,11A39.766,39.766,0,0,1,191.96,28.6a28.421,28.421,0,0,1,.41,15.383,24.4,24.4,0,0,1-7.438,12.143,21.094,21.094,0,0,1-9.168,5.039,31,31,0,0,1-9.377.862q-4.539-.292-15.751-1.55a49.782,49.782,0,0,0-5.269-.292,15,15,0,0,0-3.58.41,14.211,14.211,0,0,0-2.7.987c-.834.41-2.245,1.168-4.247,2.287q-6.172,3.774-10.732-1.321a8.339,8.339,0,0,1-2.259-6.013q.118-3.357,3.531-6.416A24.225,24.225,0,0,1,142.643,43.4a108.539,108.539,0,0,1,10.92.918c3.851.466,6.694.758,8.529.855a19.5,19.5,0,0,0,5.429-.452,10.43,10.43,0,0,0,4.761-2.468,12.109,12.109,0,0,0,4.171-9.2,14.909,14.909,0,0,0-4.171-10.336Q167.257,17.107,162.057,17t-12.38,2.989q-7.306,3.427-11.643-1.39a8.668,8.668,0,0,1-2.3-6.617,8.343,8.343,0,0,1,2.6-5.894m-33.6,74.855A10.76,10.76,0,0,1,101.89,73.7a9.493,9.493,0,0,1,3.552-7.361,9.765,9.765,0,0,1,7.417-2.565,10.172,10.172,0,0,1,7.118,3.545,10.037,10.037,0,0,1-.562,14.183c-.078.072-.157.143-.237.212a9.543,9.543,0,0,1-7.646,2.725,10.428,10.428,0,0,1-6.8-3.5" transform="translate(-31.066 0)" fill="#0033a0"/>
          <g id="Grupo_11" data-name="Grupo 11" transform="translate(167.691 43.715)" opacity="0.5">
            <g id="Grupo_10" data-name="Grupo 10">
              <g id="Grupo_9" data-name="Grupo 9" clip-path="url(#clip-path-7)">
                <path id="Trazado_7" data-name="Trazado 7" d="M242.98,71.865a13.206,13.206,0,0,1,4.664-5.742,17.281,17.281,0,0,1,8.244-3.114A20.577,20.577,0,0,1,266.058,64.5a21.389,21.389,0,0,1,8.008,5.248,15.251,15.251,0,0,1,3.893,7.264,13.1,13.1,0,0,1-.626,7.646,11.289,11.289,0,0,1-3.184,4.615,16.618,16.618,0,0,1-4.282,2.669q-2.239.952-7.917,3.045a24.26,24.26,0,0,0-2.593,1.126,7.793,7.793,0,0,0-1.613,1.057,7.253,7.253,0,0,0-1.057,1.119c-.3.4-.792,1.1-1.481,2.085q-2.085,3.295-5.456,1.946a4.484,4.484,0,0,1-2.53-2.336,4.863,4.863,0,0,1,.153-3.92,12.984,12.984,0,0,1,6.645-7.368,58.505,58.505,0,0,1,5.443-2.21c1.953-.7,3.385-1.244,4.289-1.633a10.487,10.487,0,0,0,2.488-1.522A5.625,5.625,0,0,0,267.927,81a6.466,6.466,0,0,0-.216-5.4,7.959,7.959,0,0,0-4.469-3.906q-3.754-1.481-6.256-.285a16.148,16.148,0,0,0-5.2,4.393q-2.683,3.4-5.922,2.085a4.666,4.666,0,0,1-2.69-2.621,4.4,4.4,0,0,1-.195-3.4m1.9,43.93a5.778,5.778,0,0,1-3.1-2.78,5.09,5.09,0,0,1-.083-4.344,5.206,5.206,0,0,1,2.926-3.024,5.565,5.565,0,0,1,7.4,6.931c-.019.051-.039.1-.06.152a5.109,5.109,0,0,1-3.017,3.142A5.562,5.562,0,0,1,244.878,115.8Z" transform="translate(-241.248 -62.891)" fill="#0033a0"/>
              </g>
            </g>
          </g>
          <g id="Grupo_14" data-name="Grupo 14" transform="translate(215.208 36.061)" opacity="0.1">
            <g id="Grupo_13" data-name="Grupo 13">
              <g id="Grupo_12" data-name="Grupo 12" clip-path="url(#clip-path-8)">
                <path id="Trazado_8" data-name="Trazado 8" d="M310.576,64.413a6.2,6.2,0,0,1-.966-3.309,7.966,7.966,0,0,1,.987-3.976,9.492,9.492,0,0,1,3.26-3.475,9.935,9.935,0,0,1,4.129-1.683,7.119,7.119,0,0,1,3.816.432,6.109,6.109,0,0,1,2.78,2.259,5.259,5.259,0,0,1,.931,2.44,7.877,7.877,0,0,1-.111,2.342q-.229,1.119-.931,3.838a12.7,12.7,0,0,0-.25,1.293,3.539,3.539,0,0,0,.125,1.6c.076.222.215.6.424,1.126a1.9,1.9,0,0,1-.678,2.6l-.017.01a2.085,2.085,0,0,1-1.557.348,2.253,2.253,0,0,1-1.467-1.091,6.336,6.336,0,0,1-1.015-2.308,6.258,6.258,0,0,1-.049-2.183A26.07,26.07,0,0,1,320.578,62c.25-.938.417-1.627.507-2.085a5.21,5.21,0,0,0,.076-1.39,2.654,2.654,0,0,0-.452-1.265,3.016,3.016,0,0,0-2.127-1.342,3.686,3.686,0,0,0-2.7.7,3.626,3.626,0,0,0-1.766,2.322,7.531,7.531,0,0,0,.313,3.155,2.264,2.264,0,0,1-.758,2.83,2.178,2.178,0,0,1-1.71.341,2.087,2.087,0,0,1-1.39-.848M327.918,75.3a2.718,2.718,0,0,1-1.884.453,2.356,2.356,0,0,1-1.7-1.134,2.431,2.431,0,0,1-.389-1.918,2.552,2.552,0,0,1,1.119-1.64,2.48,2.48,0,0,1,1.912-.4,2.446,2.446,0,0,1,1.62,1.091,2.4,2.4,0,0,1,.41,1.988,2.619,2.619,0,0,1-1.091,1.556" transform="translate(-309.608 -51.879)" fill="#0033a0"/>
              </g>
            </g>
          </g>
          <path id="Trazado_9" data-name="Trazado 9" d="M127.375,312.5l-5.255-1.362,3.135-12.018,5.255,1.362Z" transform="translate(-37.234 -91.202)" fill="#dabea5"/>
          <path id="Trazado_10" data-name="Trazado 10" d="M117.241,314.378l5.867,1.856a.377.377,0,0,1,.274.455l0,.01-1.237,4.553a.987.987,0,0,1-1.223.6c-2.03-.7-2.968-1.1-5.561-1.918-1.592-.5-5.429-1.633-7.646-2.328s-1.39-2.78-.424-2.649c4.463.466,7.055.091,8.911-.555a1.628,1.628,0,0,1,1.043-.028" transform="translate(-32.411 -95.832)" fill="#001a50"/>
          <g id="Grupo_17" data-name="Grupo 17" transform="translate(86.408 207.925)" opacity="0.2" style="mix-blend-mode: normal;isolation: isolate">
            <g id="Grupo_16" data-name="Grupo 16">
              <g id="Grupo_15" data-name="Grupo 15" clip-path="url(#clip-path-9)">
                <path id="Trazado_11" data-name="Trazado 11" d="M131.178,300.493l-5.255-1.362-1.613,6.193,5.255,1.362Z" transform="translate(-124.31 -299.13)"/>
              </g>
            </g>
          </g>
          <path id="Trazado_12" data-name="Trazado 12" d="M144,154.281S134.378,200,131.82,214.963c-2.78,16.39-8.89,42.464-8.89,42.464l8.932,3.245s13.978-28.909,16.1-44.666c4.442-15.4,15.7-61.725,15.7-61.725Z" transform="translate(-37.481 -47.04)" fill="#ddddde"/>
          <g id="Grupo_20" data-name="Grupo 20" transform="translate(115.027 119.41)" opacity="0.3" style="mix-blend-mode: normal;isolation: isolate">
            <g id="Grupo_19" data-name="Grupo 19">
              <g id="Grupo_18" data-name="Grupo 18" clip-path="url(#clip-path-10)">
                <path id="Trazado_13" data-name="Trazado 13" d="M169.325,174.543c-3.121,7.493-4.254,21.138-3.712,29.3,2.475-9.634,5.22-20.637,7.347-29.257-.688-2.37-1.633-4.859-3.635-.042" transform="translate(-165.483 -171.789)"/>
              </g>
            </g>
          </g>
          <path id="Trazado_14" data-name="Trazado 14" d="M131.318,305.869,121.74,303.1l.361-4.052,11.4,3.2Z" transform="translate(-37.119 -91.181)" fill="#263238"/>
          <path id="Trazado_15" data-name="Trazado 15" d="M118.524,314.171a7.153,7.153,0,0,0,1.453.258.13.13,0,0,0,.125-.2c-.132-.166-1.279-1.6-1.995-1.564a.488.488,0,0,0-.4.244.7.7,0,0,0-.063.7,1.47,1.47,0,0,0,.883.562m1.182,0c-1-.117-1.675-.361-1.842-.7a.43.43,0,0,1,.056-.444.244.244,0,0,1,.195-.126c.375-.013,1.112.688,1.592,1.252Z" transform="translate(-35.849 -95.333)" fill="#0033a0"/>
          <path id="Trazado_16" data-name="Trazado 16" d="M120.686,314.086h.063a.132.132,0,0,0,.1-.069c0-.063.639-1.474.278-2.127a.7.7,0,0,0-.459-.327.5.5,0,0,0-.563.215,2.627,2.627,0,0,0,.528,2.266.114.114,0,0,0,.056.042m0-2.266a.368.368,0,0,1,.222.188,2.619,2.619,0,0,1-.2,1.7,2.385,2.385,0,0,1-.368-1.807c0-.063.1-.132.285-.1Z" transform="translate(-36.586 -94.99)" fill="#0033a0"/>
          <path id="Trazado_17" data-name="Trazado 17" d="M147.315,95.594c-.466,1.126-.911,2.127-1.39,3.156s-.994,2.037-1.515,3.045c-1.057,2.009-2.169,3.99-3.392,5.922a54.427,54.427,0,0,1-8.758,10.962l-.125.124a2.919,2.919,0,0,1-.584.411,4.862,4.862,0,0,1-1.87.563,7.8,7.8,0,0,1-1.126,0,11.626,11.626,0,0,1-1.668-.229c-.987-.209-1.863-.466-2.725-.737-1.71-.542-3.3-1.2-4.866-1.87s-3.107-1.39-4.622-2.176-3-1.571-4.476-2.461a1.682,1.682,0,0,1,1.265-3.072c3.225.779,6.444,1.647,9.613,2.419,1.578.4,3.156.744,4.671,1.036a19.529,19.529,0,0,0,2.162.313,7.018,7.018,0,0,0,.82,0h.118a1.352,1.352,0,0,0-.7.215l-.7.535a46.251,46.251,0,0,0,3.733-4.713c1.168-1.689,2.273-3.475,3.336-5.269s2.085-3.677,3.051-5.561,1.925-3.823,2.78-5.637l.042-.09a3.8,3.8,0,0,1,6.951,3.093Z" transform="translate(-33.353 -27.509)" fill="#dabea5"/>
          <path id="Trazado_18" data-name="Trazado 18" d="M157.812,87.369c-4.476.126-7.549,4.985-10.482,11.039a25.858,25.858,0,0,0,9.349,9.384s11.761-20.721,1.133-20.423" transform="translate(-44.921 -26.638)" fill="#00aec7"/>
          <path id="Trazado_19" data-name="Trazado 19" d="M108.462,119.808l-4.032-1.029,3.142-4.039s3.476.549,4.8,3.475l-1.432,1.022a3.05,3.05,0,0,1-2.475.57" transform="translate(-31.841 -34.985)" fill="#dabea5"/>
          <path id="Trazado_20" data-name="Trazado 20" d="M102.772,114.11l.779-.7a1.8,1.8,0,0,1,2.315-.049l1.029.827-3.142,4.039-1.286-2a1.634,1.634,0,0,1,.306-2.12" transform="translate(-31.163 -34.444)" fill="#dabea5"/>
          <path id="Trazado_21" data-name="Trazado 21" d="M194.362,312.1h-5.5L187.55,299.85h5.5Z" transform="translate(-57.184 -91.425)" fill="#dabea5"/>
          <path id="Trazado_22" data-name="Trazado 22" d="M184.157,316.59h6.179a.39.39,0,0,1,.41.362l.3,4.7a.966.966,0,0,1-.966.945c-2.148-.042-3.177-.161-5.894-.161-1.668,0-6.256.167-8.584.167s-2.245-2.2-1.265-2.391c4.386-.9,7.319-2.126,8.876-3.294a1.562,1.562,0,0,1,.945-.327" transform="translate(-52.957 -96.528)" fill="#001a50"/>
          <g id="Grupo_23" data-name="Grupo 23" transform="translate(130.366 208.426)" opacity="0.2" style="mix-blend-mode: normal;isolation: isolate">
            <g id="Grupo_22" data-name="Grupo 22">
              <g id="Grupo_21" data-name="Grupo 21" clip-path="url(#clip-path-11)">
                <path id="Trazado_23" data-name="Trazado 23" d="M193.048,299.85h-5.5l.681,6.318h5.5Z" transform="translate(-187.55 -299.85)"/>
              </g>
            </g>
          </g>
          <path id="Trazado_24" data-name="Trazado 24" d="M168.7,154.275s1.216,45.96,2.085,61.106c.973,16.584,9.21,44.869,9.21,44.869h10.079s-2.21-28.909-3.879-45.181c.7-17.822,1.154-60.807,1.154-60.807Z" transform="translate(-51.437 -47.034)" fill="#ddddde"/>
          <path id="Trazado_25" data-name="Trazado 25" d="M194.78,305.128H183.352l-.542-3.677,12.275.209Z" transform="translate(-55.739 -91.912)" fill="#263238"/>
          <path id="Trazado_26" data-name="Trazado 26" d="M185.408,317.325a6.955,6.955,0,0,0,1.467-.188.126.126,0,0,0,.042-.222c-.174-.111-1.731-1.139-2.405-.882a.471.471,0,0,0-.3.348.654.654,0,0,0,.16.7,1.538,1.538,0,0,0,1.036.25m1.112-.361c-.987.188-1.71.154-1.967-.09a.438.438,0,0,1-.09-.437.229.229,0,0,1,.139-.174c.361-.139,1.279.305,1.918.7" transform="translate(-56.154 -96.346)" fill="#0033a0"/>
          <path id="Trazado_27" data-name="Trazado 27" d="M187.431,316.612h.063a.145.145,0,0,0,.069-.1c0-.063.125-1.584-.431-2.085a.633.633,0,0,0-.542-.167.487.487,0,0,0-.466.369c-.125.577.7,1.682,1.244,1.994Zm-.779-2.148a.375.375,0,0,1,.278.112,2.646,2.646,0,0,1,.361,1.681c-.48-.389-1.029-1.23-.945-1.606,0-.076.063-.159.25-.181Z" transform="translate(-56.746 -95.814)" fill="#0033a0"/>
          <path id="Trazado_28" data-name="Trazado 28" d="M155.272,90.528a5.279,5.279,0,0,1,4.059-3.538,33.9,33.9,0,0,1,4.122-.7,113.832,113.832,0,0,1,12.512,0c2.183.1,4.407.355,6.179.605h.063a3.378,3.378,0,0,1,2.965,3.746c-.007.058-.015.117-.025.174a160.392,160.392,0,0,0-2.718,21.458c-.431,10.468.153,18.684-.056,21.207H152.957c-1.786-25.53.521-37.138,2.315-42.957" transform="translate(-46.44 -26.259)" fill="#00aec7"/>
          <path id="Trazado_29" data-name="Trazado 29" d="M186.236,63.853a3.656,3.656,0,0,1-.549,6.256c1.189,1.967-1.974,5.443-5.158,3.26s1.314-11.372,5.707-9.516" transform="translate(-54.716 -19.394)" fill="#001a50"/>
          <path id="Trazado_30" data-name="Trazado 30" d="M168.855,57.584a2.523,2.523,0,0,1-2.329-3.656c-1.481-.577-1.216-3.809,1.453-3.948s4.045,6.791.876,7.6" transform="translate(-50.5 -15.238)" fill="#001a50"/>
          <path id="Trazado_31" data-name="Trazado 31" d="M168.8,83.392a1.557,1.557,0,0,1,.549-2.621c2.683-.987,3.17-2.933,2.954-5.053a14.977,14.977,0,0,0-.292-1.773l4.553-3.635,3.35-2.669c-.834,3.476-1.766,9.53,0,12.6a1.578,1.578,0,0,1-.32,2.03c-1.154,1.022-3.517,2.342-7.41,2.134a5.533,5.533,0,0,1-3.385-1.008" transform="translate(-51.313 -20.624)" fill="#dabea5"/>
          <path id="Trazado_32" data-name="Trazado 32" d="M152.814,90.68a6.123,6.123,0,0,1,4.456-4.045,37.71,37.71,0,0,1,3.983-.417.848.848,0,0,1,.938,1.063,159.464,159.464,0,0,0-4.622,47.378.98.98,0,0,1-.945,1.014h-5.9a1,1,0,0,1-1.008-.918c-1.759-26.184,1.348-39.231,3.093-44.076" transform="translate(-45.491 -26.285)" fill="#008395"/>
          <path id="Trazado_33" data-name="Trazado 33" d="M190.033,86.263a55.284,55.284,0,0,0-5.637-.514,1.452,1.452,0,0,0-1.515,1.1c-2.162,9.523-4.087,30.682-4.171,47.7a.986.986,0,0,0,1.007.966h10.427a.987.987,0,0,0,1.008-.945c.07-3.426-.4-11.455,0-21.422a149.423,149.423,0,0,1,2.669-21.145c.361-1.953-1.724-5.45-3.788-5.742" transform="translate(-54.489 -26.144)" fill="#008395"/>
          <path id="Trazado_34" data-name="Trazado 34" d="M197.2,90.078c2.231,3.365,4.261,6.736,6.179,10.274.945,1.773,1.877,3.573,2.718,5.463.417.945.827,1.912,1.209,2.934a20.636,20.636,0,0,1,.973,3.406,8.275,8.275,0,0,1,.111,2.572,11.071,11.071,0,0,1-.535,2.036,20.524,20.524,0,0,1-1.453,3.115,47.615,47.615,0,0,1-3.413,5.2,84.631,84.631,0,0,1-7.869,9.078,1.891,1.891,0,0,1-2.947-2.329v-.042c2.023-3.259,4.066-6.583,5.915-9.877.918-1.64,1.793-3.309,2.5-4.921s1.216-3.378.855-3.428a17.887,17.887,0,0,0-.806-2.168c-.348-.792-.744-1.613-1.161-2.426-.848-1.633-1.759-3.295-2.711-4.928-1.9-3.281-3.934-6.59-5.943-9.794V94.2a3.8,3.8,0,1,1,6.381-4.123Z" transform="translate(-57.997 -26.935)" fill="#dabea5"/>
          <path id="Trazado_35" data-name="Trazado 35" d="M192.348,86.36c4.476-.083,6.847,3.7,9.78,9.731a21.759,21.759,0,0,1-9.662,8.814s-8.918-18.392-.118-18.545" transform="translate(-57.464 -26.331)" fill="#00aec7"/>
          <path id="Trazado_36" data-name="Trazado 36" d="M189.619,150.522l-2.579.82,4.775,3.628s3.906-2.03,2.683-3.872l-.792-.355a5.789,5.789,0,0,0-4.087-.222" transform="translate(-57.029 -45.812)" fill="#dabea5"/>
          <path id="Trazado_37" data-name="Trazado 37" d="M184.851,155l2.9,2.912a.944.944,0,0,0,1.337-.017c.019-.019.037-.039.054-.06l1.925-2.39-4.775-3.628-1.488,2.037a.847.847,0,0,0,.049,1.146" transform="translate(-56.285 -46.29)" fill="#dabea5"/>
          <g id="Grupo_26" data-name="Grupo 26" transform="translate(120.697 49.713)" opacity="0.2" style="mix-blend-mode: normal;isolation: isolate">
            <g id="Grupo_25" data-name="Grupo 25">
              <g id="Grupo_24" data-name="Grupo 24" clip-path="url(#clip-path-12)">
                <path id="Trazado_38" data-name="Trazado 38" d="M173.64,75.156a14.988,14.988,0,0,1,.292,1.773c1.724.438,4.171-1.536,4.4-3.211a10.713,10.713,0,0,0-.139-2.2Z" transform="translate(-173.64 -71.52)"/>
              </g>
            </g>
          </g>
          <path id="Trazado_39" data-name="Trazado 39" d="M181.982,56.738c-1.175,5.131-1.592,8.189-4.748,10.476a7.236,7.236,0,0,1-11.476-5.165c-.4-4.811,1.585-12.394,7.2-13.742s10.2,3.295,9.022,8.431" transform="translate(-50.524 -14.657)" fill="#dabea5"/>
          <path id="Trazado_40" data-name="Trazado 40" d="M179.972,58.558c-1.488.077-3.072-5.171.209-7.7-.521.285-1.946-.236-1.7-1.216-.966.4-5.192.229-4.171-1.488-2.148.556-6.833-.375-7.333-2.427s1.918-2.119,2.294-1.849c-1.064-1.487-1.043-3.67,1.779-4.462S178.13,42.7,178.13,42.7c-.445-1.077,1.119-1.946,2.739-1.022s2.377,3.553,2.377,3.553c0-.793,3.781.27,1.988,3.593,1.856.7,2.7,1.683,2.586,3.4s-1.293,1.814-1.293,1.814a2.982,2.982,0,0,1-1.022,3.532c-1.925,1.55-3.608-.272-5.533.986" transform="translate(-50.892 -11.987)" fill="#001a50"/>
          <path id="Trazado_41" data-name="Trazado 41" d="M188.05,66.291a5.008,5.008,0,0,1-2.732,1.982c-1.432.382-1.918-.9-1.335-2.231.528-1.2,1.9-2.857,3.253-2.648s1.62,1.7.813,2.9" transform="translate(-56.023 -19.323)" fill="#dabea5"/>
        </g>
      </g>
    </g>
  </g>
</svg>
