<svg xmlns="http://www.w3.org/2000/svg" xmlns:xlink="http://www.w3.org/1999/xlink" width="250.973" height="237.41" viewBox="0 0 250.973 237.41">
  <defs>
    <clipPath id="clip-path">
      <rect id="Rectángulo_29" data-name="Rectángulo 29" width="250.973" height="237.41" fill="none"/>
    </clipPath>
    <clipPath id="clip-path-3">
      <rect id="Rectángulo_20" data-name="Rectángulo 20" width="180.496" height="136.941" fill="none"/>
    </clipPath>
    <clipPath id="clip-path-4">
      <rect id="Rectángulo_21" data-name="Rectángulo 21" width="11.584" height="13.138" fill="none"/>
    </clipPath>
    <clipPath id="clip-path-5">
      <rect id="Rectángulo_22" data-name="Rectángulo 22" width="5.436" height="6.989" fill="none"/>
    </clipPath>
    <clipPath id="clip-path-6">
      <rect id="Rectángulo_23" data-name="Rectángulo 23" width="5.695" height="6.083" fill="none"/>
    </clipPath>
    <clipPath id="clip-path-7">
      <rect id="Rectángulo_24" data-name="Rectángulo 24" width="5.051" height="11.779" fill="none"/>
    </clipPath>
    <clipPath id="clip-path-8">
      <rect id="Rectángulo_25" data-name="Rectángulo 25" width="4.508" height="5.372" fill="none"/>
    </clipPath>
    <clipPath id="clip-path-9">
      <rect id="Rectángulo_26" data-name="Rectángulo 26" width="6.855" height="30.417" fill="none"/>
    </clipPath>
    <clipPath id="clip-path-10">
      <rect id="Rectángulo_27" data-name="Rectángulo 27" width="47.262" height="29.011" fill="none"/>
    </clipPath>
  </defs>
  <g id="Grupo_59" data-name="Grupo 59" transform="translate(0)">
    <g id="Grupo_58" data-name="Grupo 58" transform="translate(0)" clip-path="url(#clip-path)">
      <g id="Grupo_57" data-name="Grupo 57">
        <g id="Grupo_56" data-name="Grupo 56" clip-path="url(#clip-path)">
          <path id="Trazado_42" data-name="Trazado 42" d="M124.79,1l28.217,7.572a28.728,28.728,0,0,1,20.321,35.206L143.3,155.8a28.728,28.728,0,0,1-35.206,20.321l-28.217-7.572a28.728,28.728,0,0,1-20.321-35.206L89.584,21.32A28.7,28.7,0,0,1,124.79,1" transform="translate(-20.661 0)" fill="#e0e6f4"/>
          <path id="Trazado_43" data-name="Trazado 43" d="M261.79,77.7l28.217,7.572a28.728,28.728,0,0,1,20.321,35.206L280.3,232.5a28.728,28.728,0,0,1-35.206,20.321l-28.217-7.572a28.728,28.728,0,0,1-20.321-35.206L226.584,98.02A28.7,28.7,0,0,1,261.79,77.7" transform="translate(-68.998 -27.062)" fill="#e0e6f4"/>
          <path id="Trazado_44" data-name="Trazado 44" d="M125.486,344.243c69.3,0,125.486,3.274,125.486,7.313s-56.182,7.313-125.486,7.313S0,355.6,0,351.556s56.182-7.313,125.486-7.313" transform="translate(0 -121.459)" fill="#f5f5f5"/>
          <path id="Trazado_45" data-name="Trazado 45" d="M244.15,131.319l-25.369,4.336a2.528,2.528,0,0,0-2.071,2.848,2.458,2.458,0,0,0,1.035,1.618l4.66,3.3-28.67,40.513a2.476,2.476,0,0,1-3.43.582l-42.131-29.77a2.476,2.476,0,0,0-3.43.582L59.9,275.314H90.382l60.316-85.3a2.476,2.476,0,0,1,3.43-.582l42.131,29.77a2.476,2.476,0,0,0,3.43-.582l43.037-60.834,4.66,3.3a2.5,2.5,0,0,0,3.495-.647,2.246,2.246,0,0,0,.388-1.812l-4.336-25.369a2.373,2.373,0,0,0-2.783-1.941" transform="translate(-21.134 -46.317)" fill="#6685c6"/>
          <g id="Grupo_34" data-name="Grupo 34" transform="translate(45.755 88.561)" opacity="0.2" style="mix-blend-mode: normal;isolation: isolate">
            <g id="Grupo_33" data-name="Grupo 33">
              <g id="Grupo_32" data-name="Grupo 32" clip-path="url(#clip-path-3)">
                <path id="Trazado_46" data-name="Trazado 46" d="M92.316,273.784H70.829a.226.226,0,0,1-.129-.065v-.194l78.631-111.184a2.6,2.6,0,0,1,3.624-.647l42.131,29.77a2.3,2.3,0,0,0,3.236-.518v-.065l32.812-46.4-5.177-3.689a.238.238,0,0,1-.065-.194.139.139,0,0,1,.129-.129l21.357-3.624c.065,0,.194.065.194.129l3.624,21.357a.238.238,0,0,1-.065.194.121.121,0,0,1-.194,0l-5.177-3.689-42.972,60.7a2.6,2.6,0,0,1-3.624.647l-42.131-29.77a2.27,2.27,0,0,0-3.171.518L92.38,273.655c.065.065,0,.129-.065.129m-21.162-.324h21.1l61.287-86.721a2.671,2.671,0,0,1,3.689-.647l42.131,29.77a2.27,2.27,0,0,0,3.171-.518l43.037-60.834c0-.065.065-.065.129-.065h.129l5.048,3.559L247.313,137.3l-20.774,3.559,5.048,3.559c.065,0,.065.065.065.129v.129l-32.876,46.532a2.364,2.364,0,0,1-1.683,1.035,2.583,2.583,0,0,1-1.942-.453l-42.131-29.77a2.3,2.3,0,0,0-3.236.518v.065Z" transform="translate(-70.7 -136.843)" fill="#fff"/>
              </g>
            </g>
          </g>
          <path id="Trazado_47" data-name="Trazado 47" d="M189.248,339.292l-5.048-.971.906-11.779,4.983.906Z" transform="translate(-64.991 -115.214)" fill="#887c71"/>
          <path id="Trazado_48" data-name="Trazado 48" d="M240.542,339.621h-5.113l-1.23-11.779h5.048Z" transform="translate(-82.633 -115.672)" fill="#887c71"/>
          <path id="Trazado_49" data-name="Trazado 49" d="M230.388,345.143H236.6a.487.487,0,0,1,.453.324l1.035,4.53a.84.84,0,0,1-.582.906h-.194c-2.006,0-3.43-.129-5.954-.129-1.553,0-6.213.129-8.348.129s-2.395-2.136-1.553-2.33c3.948-.841,6.86-2.006,8.154-3.171a1.387,1.387,0,0,1,.777-.259" transform="translate(-77.979 -121.776)" fill="#001a50"/>
          <path id="Trazado_50" data-name="Trazado 50" d="M178.233,343.043l5.5.971c.194.065.388.194.388.388l.194,4.595a.777.777,0,0,1-.712.777h-.194c-1.942-.388-4.789-.971-7.313-1.424-2.912-.518-4.336-.841-7.7-1.424-2.071-.324-1.618-2.589-.712-2.653,4.077-.194,5.5.453,9.255-1.035a4.484,4.484,0,0,1,1.294-.194" transform="translate(-58.895 -121.035)" fill="#001a50"/>
          <path id="Trazado_51" data-name="Trazado 51" d="M193.023,115c-.194.518-.324.906-.453,1.294a9.957,9.957,0,0,1-.518,1.23c-.324.841-.712,1.618-1.035,2.459q-1.165,2.427-2.524,4.66a31.582,31.582,0,0,1-7.313,8.478,15.65,15.65,0,0,1-2.589,1.618,3.468,3.468,0,0,1-.712.324,6.733,6.733,0,0,0-.777.324,8.692,8.692,0,0,1-1.747.453,14.99,14.99,0,0,1-2.977.259c-.906,0-1.812,0-2.718-.065a53.937,53.937,0,0,1-10.161-1.812l.518-3.818c3.236-.129,6.536-.259,9.578-.518.777-.065,1.553-.129,2.265-.259a10.532,10.532,0,0,0,1.942-.453,2.3,2.3,0,0,0,.582-.259c.194-.129.518-.259.712-.388a12.637,12.637,0,0,0,1.488-1.1,20.706,20.706,0,0,0,2.783-3.042,27.674,27.674,0,0,0,2.395-3.689,40.086,40.086,0,0,0,2.071-4.077c.324-.712.647-1.424.906-2.071l.453-1.035.388-.971Z" transform="translate(-56.276 -39.708)" fill="#887c71"/>
          <path id="Trazado_52" data-name="Trazado 52" d="M200.549,107.139c9.319,0-.906,20.062-.906,20.062L187.8,122.412s3.236-6.989,5.372-10.937a7.954,7.954,0,0,1,7.378-4.336" transform="translate(-66.261 -37.799)" fill="#407bff"/>
          <path id="Trazado_53" data-name="Trazado 53" d="M200.549,107.139c9.319,0-.906,20.062-.906,20.062L187.8,122.412s3.236-6.989,5.372-10.937a7.954,7.954,0,0,1,7.378-4.336" transform="translate(-66.261 -37.799)" fill="#00aec7"/>
          <g id="Grupo_37" data-name="Grupo 37" transform="translate(125.616 75.812)" opacity="0.2" style="mix-blend-mode: normal;isolation: isolate">
            <g id="Grupo_36" data-name="Grupo 36">
              <g id="Grupo_35" data-name="Grupo 35" clip-path="url(#clip-path-4)">
                <path id="Trazado_54" data-name="Trazado 54" d="M200.507,117.143a17.4,17.4,0,0,0-6.407,10.419l6.8,2.718c1.23-1.812,2.459-4.012,3.754-5.889.388-.971.712-2.006,1.035-3.106Z" transform="translate(-194.1 -117.143)"/>
              </g>
            </g>
          </g>
          <path id="Trazado_55" data-name="Trazado 55" d="M160.984,139.773l-4.077-2.33-3.106,5.825a13.982,13.982,0,0,0,5.436-.129Z" transform="translate(-54.265 -48.494)" fill="#887c71"/>
          <path id="Trazado_56" data-name="Trazado 56" d="M151.365,137.443,149.1,142.62l2.977.712,3.171-5.889Z" transform="translate(-52.607 -48.494)" fill="#887c71"/>
          <g id="Grupo_40" data-name="Grupo 40" transform="translate(119.662 211.329)" opacity="0.2" style="mix-blend-mode: normal;isolation: isolate">
            <g id="Grupo_39" data-name="Grupo 39">
              <g id="Grupo_38" data-name="Grupo 38" clip-path="url(#clip-path-5)">
                <path id="Trazado_57" data-name="Trazado 57" d="M185.353,326.543l-.453,6.083,4.983.906.453-6.083Z" transform="translate(-184.9 -326.543)"/>
              </g>
            </g>
          </g>
          <g id="Grupo_43" data-name="Grupo 43" transform="translate(151.567 212.17)" opacity="0.2" style="mix-blend-mode: normal;isolation: isolate">
            <g id="Grupo_42" data-name="Grupo 42">
              <g id="Grupo_41" data-name="Grupo 41" clip-path="url(#clip-path-6)">
                <path id="Trazado_58" data-name="Trazado 58" d="M239.248,327.843H234.2l.647,6.083h5.048Z" transform="translate(-234.2 -327.843)"/>
              </g>
            </g>
          </g>
          <path id="Trazado_59" data-name="Trazado 59" d="M228.723,109.267a112.739,112.739,0,0,0-3.236,16.762c-.518,3.948-.777,7.7-.971,11.131-.453,8.025-.259,14.108-.518,16.179-4.012-.259-18.962-1.294-27.181-1.877-3.689-28.929,3.365-43.878,3.365-43.878a53.544,53.544,0,0,1,6.472-.777c.453,0,.906-.065,1.424-.065a113.491,113.491,0,0,1,11.52.777c.712.065,1.489.194,2.2.324a59.726,59.726,0,0,1,6.925,1.424" transform="translate(-69.066 -37.662)" fill="#407bff"/>
          <path id="Trazado_60" data-name="Trazado 60" d="M228.723,109.267a112.739,112.739,0,0,0-3.236,16.762c-.518,3.948-.777,7.7-.971,11.131-.453,8.025-.259,14.108-.518,16.179-4.012-.259-18.962-1.294-27.181-1.877-3.689-28.929,3.365-43.878,3.365-43.878a53.544,53.544,0,0,1,6.472-.777c.453,0,.906-.065,1.424-.065a113.491,113.491,0,0,1,11.52.777c.712.065,1.489.194,2.2.324a59.726,59.726,0,0,1,6.925,1.424" transform="translate(-69.066 -37.662)" fill="#00aec7"/>
          <g id="Grupo_46" data-name="Grupo 46" transform="translate(152.794 78.918)" opacity="0.2" style="mix-blend-mode: normal;isolation: isolate">
            <g id="Grupo_45" data-name="Grupo 45">
              <g id="Grupo_44" data-name="Grupo 44" clip-path="url(#clip-path-7)">
                <path id="Trazado_61" data-name="Trazado 61" d="M236.1,121.943a21.14,21.14,0,0,0,3.365,11.779c.065-.777.194-1.553.259-2.33.388-2.977.841-6.019,1.424-9.125Z" transform="translate(-236.096 -121.943)"/>
              </g>
            </g>
          </g>
          <path id="Trazado_62" data-name="Trazado 62" d="M226.027,87.643c-.971,3.689-2.2,10.419.259,13.073a11.509,11.509,0,0,1-9.125,2.912c-3.171-.259-3.171-2.524-2.395-3.754,4.207-.712,4.336-3.754,3.818-6.731Z" transform="translate(-75.624 -30.923)" fill="#887c71"/>
          <path id="Trazado_63" data-name="Trazado 63" d="M215,113.608a7.092,7.092,0,0,0,.388,1.683.922.922,0,0,0,.841.582,14.792,14.792,0,0,1,1.618.129.8.8,0,0,0,.647-.129c.647-.388,1.488-1.035,1.294-1.747-.259-.906-1.747-1.683-1.747-1.683s-2.718.647-3.042,1.165" transform="translate(-75.858 -39.673)" fill="#008395"/>
          <path id="Trazado_64" data-name="Trazado 64" d="M215.021,116.843c-1.035,2.265-3.43,16.891-3.754,19.092s.712,5.76,2.136,8.607a13.939,13.939,0,0,0,2.653-7.637c.194-3.042.388-19.674.388-19.674Z" transform="translate(-74.52 -41.226)" fill="#008395"/>
          <path id="Trazado_65" data-name="Trazado 65" d="M219.5,110.57a9.27,9.27,0,0,1,2.33,2.912c1.618-.129,8.866-3.3,7.831-5.76-.906-.259-1.683-.777-1.942-.518-.324.518-3.365,2.395-8.219,3.365" transform="translate(-77.446 -37.8)" fill="#fff"/>
          <path id="Trazado_66" data-name="Trazado 66" d="M216.62,110.177s-2.783.906-3.43,2.524c-1.683-.712-2.589-4.077-1.1-6.342.906-.065,1.812-.518,2.006-.259.259.647-.453,2.2,2.524,4.077" transform="translate(-74.566 -37.407)" fill="#fff"/>
          <g id="Grupo_49" data-name="Grupo 49" transform="translate(142.895 58.985)" opacity="0.2" style="mix-blend-mode: normal;isolation: isolate">
            <g id="Grupo_48" data-name="Grupo 48">
              <g id="Grupo_47" data-name="Grupo 47" clip-path="url(#clip-path-8)">
                <path id="Trazado_67" data-name="Trazado 67" d="M225.265,91.143l-4.465,3.3a11.214,11.214,0,0,1,.194,2.071c1.618-.129,3.883-1.683,4.207-3.365a6.958,6.958,0,0,0,.065-2.006" transform="translate(-220.8 -91.143)"/>
              </g>
            </g>
          </g>
          <path id="Trazado_68" data-name="Trazado 68" d="M214.846,69.339c-1.942.777-2.653,8.284,1.294,7.572s2.653-9.125-1.294-7.572" transform="translate(-75.251 -24.397)" fill="#263238"/>
          <path id="Trazado_69" data-name="Trazado 69" d="M227.1,76.033c-1.618,4.789-2.265,7.7-5.372,9.513-4.724,2.783-10.161-1.035-10.031-6.213.129-4.66,2.653-11.714,7.96-12.426a6.9,6.9,0,0,1,7.442,9.125" transform="translate(-74.693 -23.584)" fill="#887c71"/>
          <path id="Trazado_70" data-name="Trazado 70" d="M224.812,75.558c-2.006.065-3.689-6.083.388-7.766-3.171-.388-13.008.194-14.755-4.207s5.048-5.048,7.378-3.43c-.712-2.395,2.265-5.954,7.637-2.718s5.307,7.248,4.854,8.413c2.395.647,2.912,6.019.194,6.731,1.553,2.136.194,6.731-4.012,5.76-.129,2.653-3.106,1.488-2.912-.518.194-2.136,1.23-2.265,1.23-2.265" transform="translate(-74.151 -19.808)" fill="#263238"/>
          <path id="Trazado_71" data-name="Trazado 71" d="M234.361,86.763a4.734,4.734,0,0,1-3.43,1.294c-1.683-.065-2.006-1.683-1.1-3.042.841-1.165,2.653-2.589,4.142-1.877a2.205,2.205,0,0,1,.971,2.912,3.435,3.435,0,0,1-.582.712" transform="translate(-80.916 -29.266)" fill="#887c71"/>
          <path id="Trazado_72" data-name="Trazado 72" d="M181.64,277.414l8.413,2.006s2.977-25.628,5.5-43.684c.647-4.789,1.747-11.52,3.3-18.639,2.006-9,4.53-18.768,6.6-26.4,2.2-8.025,3.818-13.72,3.818-13.72l-17.862-1.23s-9.643,42.131-10.678,57.6c-1.035,16.115.906,44.072.906,44.072" transform="translate(-63.661 -62.007)" fill="#babbbd"/>
          <g id="Grupo_52" data-name="Grupo 52" transform="translate(134.94 124.673)" opacity="0.2" style="mix-blend-mode: normal;isolation: isolate">
            <g id="Grupo_51" data-name="Grupo 51">
              <g id="Grupo_50" data-name="Grupo 50" clip-path="url(#clip-path-9)">
                <path id="Trazado_73" data-name="Trazado 73" d="M208.761,223.06c2.006-9,4.53-18.768,6.6-26.4l-1.877-4.012c-4.4,5.307-5.566,21.551-4.724,30.417" transform="translate(-208.507 -192.643)"/>
              </g>
            </g>
          </g>
          <path id="Trazado_74" data-name="Trazado 74" d="M212.4,176.743s1.942,43.555,4.077,58.31c2.33,16.179,8.349,44.331,8.349,44.331h9.319s-2.589-26.469-4.336-42.26c-2.006-18.056.129-59.216.129-59.216Z" transform="translate(-74.941 -62.36)" fill="#ddddde"/>
          <path id="Trazado_75" data-name="Trazado 75" d="M229.447,333.838h11l.453-3.3-12.1-.194Z" transform="translate(-80.727 -116.555)" fill="#989a9c"/>
          <path id="Trazado_76" data-name="Trazado 76" d="M181.259,331.767l9.578,1.812,1.1-3.365L181,328.143Z" transform="translate(-63.862 -115.778)" fill="#989a9c"/>
          <path id="Trazado_77" data-name="Trazado 77" d="M232.23,345.839a1.685,1.685,0,0,1-.971-.259.75.75,0,0,1-.259-.647.356.356,0,0,1,.194-.324c.582-.324,2.2.712,2.395.841.065,0,.065.065.065.129s-.065.065-.065.129a9.658,9.658,0,0,0-1.359.129m-.777-1.1h-.129a.226.226,0,0,0-.065.129.935.935,0,0,0,.129.453,2.215,2.215,0,0,0,1.812.065,6.983,6.983,0,0,0-1.747-.647" transform="translate(-81.504 -121.566)" fill="#407bff"/>
          <path id="Trazado_78" data-name="Trazado 78" d="M234.082,345.008h0c-.582-.259-1.618-1.424-1.488-1.942a.41.41,0,0,1,.388-.324.7.7,0,0,1,.518.129c.582.453.712,1.942.712,2.006s0,.129-.129.129h0m-1.035-2.071h0c-.194,0-.194.065-.194.129-.065.324.582,1.165,1.1,1.553a3.483,3.483,0,0,0-.582-1.618.584.584,0,0,0-.324-.065" transform="translate(-82.062 -120.93)" fill="#407bff"/>
          <path id="Trazado_79" data-name="Trazado 79" d="M181.9,343.214h0c-.841,0-2.33,0-2.783-.582a.8.8,0,0,1-.129-.647.278.278,0,0,1,.259-.259c.647-.259,2.524,1.165,2.718,1.294.065,0,.065.065.065.129-.065,0-.065.065-.129.065m-2.589-1.294h0c-.065,0-.065.065-.129.129a.428.428,0,0,0,.065.388,3.257,3.257,0,0,0,2.2.518,4.834,4.834,0,0,0-2.136-1.035" transform="translate(-63.143 -120.56)" fill="#407bff"/>
          <path id="Trazado_80" data-name="Trazado 80" d="M182.71,342.7h-.065c-.582-.388-1.553-1.683-1.359-2.2a.506.506,0,0,1,.518-.259.9.9,0,0,1,.647.324,3.782,3.782,0,0,1,.453,2.071c-.065,0-.129.065-.194.065m-1.165-2.265a.226.226,0,0,0-.129.065c-.129.324.582,1.294,1.1,1.812a2.6,2.6,0,0,0-.388-1.683,1.043,1.043,0,0,0-.453-.259c0,.065-.065.065-.129.065" transform="translate(-63.954 -120.048)" fill="#407bff"/>
          <path id="Trazado_81" data-name="Trazado 81" d="M191.418,144.931l-2.071-1.488L155.5,190.816l2.071,1.488a29.12,29.12,0,0,0,33.847-47.373" transform="translate(-54.865 -50.611)" fill="#002678"/>
          <path id="Trazado_82" data-name="Trazado 82" d="M133.384,179.216a31.126,31.126,0,0,1,.906-11.973l.647.194a29.791,29.791,0,0,0-.841,11.714Z" transform="translate(-46.987 -59.008)" fill="#002678"/>
          <path id="Trazado_83" data-name="Trazado 83" d="M135.824,195.3a36.772,36.772,0,0,1-1.424-4.53l.647-.129a26.593,26.593,0,0,0,1.359,4.4Z" transform="translate(-47.42 -67.264)" fill="#002678"/>
          <path id="Trazado_84" data-name="Trazado 84" d="M165.823,135.043A29.123,29.123,0,1,1,136.7,164.166a29.123,29.123,0,0,1,29.123-29.123" transform="translate(-48.232 -47.647)" fill="#0033a0"/>
          <path id="Trazado_85" data-name="Trazado 85" d="M168.029,180.047l4.595-6.407a9.808,9.808,0,0,1-2.524-5.7,8.219,8.219,0,0,1,1.618-5.177,7.587,7.587,0,0,1,4.595-3.106,7.82,7.82,0,0,1,5.63,1.035l1.1-1.553,2.2,1.553-1.1,1.553a8.217,8.217,0,0,1,2.653,4.4,8.324,8.324,0,0,1-.777,4.983l-4.207-2.265a3.873,3.873,0,0,0-.065-3.754l-4.271,5.954c1.942,2.395,3.042,4.465,3.171,6.148A7.285,7.285,0,0,1,179.1,182.7a8.568,8.568,0,0,1-4.983,3.495,9.187,9.187,0,0,1-6.278-.971l-1.1,1.553-2.2-1.553,1.035-1.488a8.9,8.9,0,0,1-2.912-5.048,9.731,9.731,0,0,1,1.23-6.148l4.271,2.395a6.7,6.7,0,0,0-.582,2.783,4.845,4.845,0,0,0,.453,2.33M179.484,164a3.214,3.214,0,0,0-2.2,0,2.964,2.964,0,0,0-1.683,1.23,3.083,3.083,0,0,0-.582,1.877,4.363,4.363,0,0,0,.647,2.2ZM170.1,181.859a3.96,3.96,0,0,0,2.589.259,3.531,3.531,0,0,0,2.136-1.488,3.388,3.388,0,0,0,.647-2.2,4.56,4.56,0,0,0-1.165-2.524Z" transform="translate(-57.363 -56.15)" fill="#fff"/>
          <g id="Grupo_55" data-name="Grupo 55" transform="translate(93.886 92.879)" opacity="0.1" style="mix-blend-mode: normal;isolation: isolate">
            <g id="Grupo_54" data-name="Grupo 54">
              <g id="Grupo_53" data-name="Grupo 53" clip-path="url(#clip-path-10)">
                <path id="Trazado_86" data-name="Trazado 86" d="M192.334,164.76a23.695,23.695,0,0,0-46.661,7.766,23.706,23.706,0,1,1,46.208-10.614,20.107,20.107,0,0,1,.453,2.848" transform="translate(-145.072 -143.515)"/>
              </g>
            </g>
          </g>
          <path id="Trazado_87" data-name="Trazado 87" d="M243.043,114.943c.647.841,1.165,1.553,1.747,2.33s1.1,1.553,1.618,2.395c1.035,1.618,2.006,3.236,2.912,4.919s1.747,3.43,2.524,5.242l.583,1.359.518,1.424a12.073,12.073,0,0,1,.453,1.424l.194.712.065.194.129.388a3.279,3.279,0,0,1,.129.841,7.832,7.832,0,0,1-.324,2.718,7.17,7.17,0,0,1-.906,1.877,16.758,16.758,0,0,1-2.071,2.718,37.905,37.905,0,0,1-4.465,4.012,64.65,64.65,0,0,1-9.578,6.083l-2.071-3.171c2.718-2.33,5.436-4.724,7.9-7.184a36.053,36.053,0,0,0,3.3-3.754,10.415,10.415,0,0,0,1.1-1.812,2.466,2.466,0,0,0,.194-.647h0v.194l-.065-.129-.194-.582c-.129-.388-.324-.777-.453-1.165l-.518-1.165L245.243,133c-.777-1.553-1.618-3.042-2.459-4.53S240.972,125.492,240,124c-.453-.712-.971-1.488-1.424-2.2l-1.488-2.071Z" transform="translate(-82.738 -40.555)" fill="#887c71"/>
          <path id="Trazado_88" data-name="Trazado 88" d="M242.423,110.533c4.789.971,8.931,12.62,8.931,12.62l-9.966,8.09s-3.236-5.954-5.889-11.649c-2.783-6.213,1.1-10.225,6.925-9.06" transform="translate(-82.766 -38.928)" fill="#407bff"/>
          <path id="Trazado_89" data-name="Trazado 89" d="M242.423,110.533c4.789.971,8.931,12.62,8.931,12.62l-9.966,8.09s-3.236-5.954-5.889-11.649c-2.783-6.213,1.1-10.225,6.925-9.06" transform="translate(-82.766 -38.928)" fill="#00aec7"/>
          <path id="Trazado_90" data-name="Trazado 90" d="M233.413,168.843l-5.113.582,3.365,5.566s4.271-1.424,3.754-3.818Z" transform="translate(-80.551 -59.573)" fill="#887c71"/>
          <path id="Trazado_91" data-name="Trazado 91" d="M223.5,172.655l2.977,4.465,3.43-1.812-3.365-5.566Z" transform="translate(-78.857 -59.89)" fill="#887c71"/>
        </g>
      </g>
    </g>
  </g>
</svg>
